<?xml version="1.0" encoding="UTF-8"?>
<svg width="40px" height="40px" viewBox="0 0 40 40" version="1.1" xmlns="http://www.w3.org/2000/svg" xmlns:xlink="http://www.w3.org/1999/xlink">
    <!-- Generator: sketchtool 52.5 (67469) - http://www.bohemiancoding.com/sketch -->
    <title>463A98FA-C6ED-47F4-A8AA-44555E262049</title>
    <desc>Created with sketchtool.</desc>
    <defs>
        <path d="M31.7392187,12.0814268 C31.9180469,11.9685372 32.0978906,11.8569478 32.2774219,11.7447465 L31.3167969,12.7044613 L28.4725,15.5418458 L25.6178125,18.3693639 L24.1903906,19.7830847 L22.7584375,21.1925224 L19.8914844,24.0084915 L17.0136719,26.8142118 C16.0560156,27.7509815 15.0883594,28.6781909 14.1260937,29.6106011 C14.0429687,29.6918265 13.9673437,29.7902608 13.9108594,29.8981025 C13.6191406,30.454214 13.8432812,31.1364467 14.41125,31.4219595 L14.4536719,31.4432219 L14.5353906,31.4842936 C14.4936719,31.5281951 14.4825781,31.5581001 14.5140625,31.5678135 L14.9996875,31.7177212 L16.2817187,32.3620946 L13.5759375,34.6478036 C12.8622656,35.25057 11.7625781,35.0556901 11.3100781,34.2461123 L7.5909375,27.5919724 C8.07976562,27.2663057 8.56882812,26.9410979 9.05820312,26.616196 L11.1035937,25.2694747 C11.7844531,24.8192165 12.4688281,24.3740825 13.153125,23.9291016 L15.2054687,22.5931645 C15.8885156,22.146042 16.576875,21.7072563 17.2628906,21.2648758 L19.3224219,19.9398758 C20.0085937,19.4978013 20.6950781,19.0560326 21.3849219,18.6195414 L25.5184375,15.9917981 C26.2061719,15.5519416 26.9001562,15.1218749 27.5907812,14.6864544 L29.665,13.3839406 L31.7392187,12.0814268 Z M37.9699219,5.06414323 C39.1592187,4.72226203 40.2674219,5.80320318 39.9426562,6.9740889 L32.5073437,33.7950892 C32.3350781,34.4162116 31.6725781,34.7752251 31.0435156,34.588223 L19.1666406,31.0578981 L16.9240625,30.0334783 C17.4725,29.4514389 18.0214062,28.869782 18.5736719,28.2914139 L21.3425,25.3825173 L24.1221875,22.4839461 L25.5135156,21.0361137 L26.9094531,19.5926408 L29.7013281,16.7055421 L32.5036719,13.8283862 L35.3079687,10.9531424 C36.240625,9.99281571 37.1842187,9.04266133 38.1217969,8.08692366 L38.1254687,8.0834819 C38.3714062,7.83284551 38.4198437,7.44125005 38.2199219,7.13569851 C37.9858594,6.77783227 37.4996875,6.67358528 37.1341406,6.90280629 L32.9841406,9.50523347 C32.2921094,9.93843595 31.6020312,10.3745448 30.9071094,10.8033877 L28.8255469,12.094582 L26.7439844,13.3857762 C26.0492969,13.8149251 25.358125,14.2493513 24.6605469,14.6740641 L20.4825781,17.2336605 C19.7872656,17.6616621 19.0883594,18.0845394 18.389375,18.5069577 L16.293125,19.7755893 C15.5939062,20.1977017 14.8969531,20.6234088 14.1947656,21.0409321 L12.0913281,22.2986266 C11.3903906,22.7181385 10.6894531,23.1376505 9.98507812,23.551885 L7.8746875,24.7988718 C7.12632812,25.2371987 6.37773437,25.6751432 5.62789062,26.1111755 L0.871796875,24.8966177 C-0.17984375,24.6280842 -0.3171875,23.2212469 0.663359375,22.762499 L36.9195312,5.52503273 C37.3126562,5.30063017 37.6611719,5.15286407 37.9699219,5.06414323 Z" id="path-1"></path>
    </defs>
    <g id="Icons" stroke="none" stroke-width="1" fill="none" fill-rule="evenodd">
        <g id="Icons/send">
            <mask id="mask-2" fill="white">
                <use xlink:href="#path-1"></use>
            </mask>
            <use id="Mask" fill="#FFFFFF" xlink:href="#path-1"></use>
            <g id="Colors/white" mask="url(#mask-2)" fill="#FFFFFF">
                <rect id="Rectangle" x="0" y="0" width="40" height="40"></rect>
            </g>
            <rect id="Bounding-box" mask="url(#mask-2)" x="0" y="0" width="40" height="40"></rect>
        </g>
    </g>
</svg>