<?xml version="1.0"?>
<svg xmlns="http://www.w3.org/2000/svg" height="512px" viewBox="-32 1 511 511.999" width="512px"><path d="m422.527344 51.933594c-21.6875-1.394532-287.90625-18.53125-287.90625-18.53125v-5.679688c0-4.144531-3.355469-7.5-7.5-7.5-4.144532 0-7.5 3.355469-7.5 7.5v8.898438l-58.429688 42.542968v-59.480468c0-9.957032-7.597656-19.683594-20.703125-19.683594-10.851562 0-19.679687 8.832031-19.679687 19.683594v81.066406c-3.351563.75-5.855469 3.734375-5.855469 7.3125 0 3.574219 2.503906 6.558594 5.855469 7.3125v339.261719c-8.199219 2.375-14.214844 9.941406-14.214844 18.894531v23.605469c-3.472656.660156-6.09375 3.703125-6.09375 7.363281 0 4.140625 3.355469 7.5 7.5 7.5h65.996094c4.144531 0 7.5-3.359375 7.5-7.5 0-3.660156-2.621094-6.707031-6.09375-7.363281v-23.605469c0-8.953125-6.015625-16.515625-14.214844-18.894531v-148.484375c0-4.140625-3.355469-7.5-7.5-7.5-4.140625 0-7.5 3.359375-7.5 7.5v147.695312h-10.378906v-338.285156h10.378906v155.589844c0 4.140625 3.359375 7.5 7.503906 7.5 4.140625 0 7.5-3.359375 7.5-7.5v-134.191406l58.429688 42.546874v8.894532c0 4.140625 3.359375 7.5 7.5 7.5 4.144531 0 7.5-3.359375 7.5-7.5v-5.679688c14.910156-.960937 272.398437-17.535156 287.910156-18.53125 14.511719-.933594 25.882812-13.058594 25.882812-27.601562v-57.070313c0-.003906 0-.007812 0-.015625-.019531-14.527344-11.382812-26.636718-25.886718-27.570312zm-250.609375-1.097656v114.453124l-37.296875 2.398438v-119.253906zm15 .964843 37.300781 2.402344v107.71875l-37.300781 2.402344zm97.097656 66.261719c-4.144531 0-7.5 3.359375-7.5 7.5v32.992188l-37.296875 2.402343v-105.789062l37.296875 2.398437v32.992188c0 4.144531 3.355469 7.503906 7.5 7.503906s7.5-3.359375 7.5-7.503906v-32.027344l37.296875 2.402344v94.257812l-37.296875 2.398438v-32.027344c0-4.140625-3.355469-7.5-7.5-7.5zm59.796875 36.160156v-92.324218c19.480469 1.253906 12.023438.773437 37.300781 2.402343v87.523438zm-288.09375 314.625c2.539062 0 4.683594 2.144532 4.683594 4.683594v23.46875h-38.808594v-23.46875c0-2.539062 2.144531-4.683594 4.683594-4.683594zm-19.910156-368.285156v-80.878906c0-2.539063 2.144531-4.683594 4.683594-4.683594h1.015624c2.539063 0 4.683594 2.144531 4.683594 4.683594v80.878906zm25.382812 14.8125c7.769532-1.746094 7.769532-12.878906 0-14.625v-3.03125l58.429688-42.542969v105.773438l-58.429688-42.546875zm372.21875 21.214844c0 6.652344-5.203125 12.203125-11.84375 12.628906l-25.453125 1.640625v-85.59375l25.453125 1.636719c6.640625.429687 11.84375 5.976562 11.84375 12.632812zm0 0" fill="#eb2f11"/></svg>
