<svg xmlns="http://www.w3.org/2000/svg" xmlns:xlink="http://www.w3.org/1999/xlink" width="84" height="110" viewBox="0 0 84 110">
    <defs>
        <path id="a" d="M83.976 20.051c.003.04.024.075.024.116v80.666c-.006 5.06-4.09 9.16-9.13 9.167H9.13c-5.04-.006-9.124-4.106-9.13-9.167V9.167C.006 4.107 4.09.007 9.13 0h54.783c.038 0 .071.02.1.016.165.01.327.042.482.096.057.02.11.035.165.058.2.09.381.213.537.367l18.26 18.333c.153.156.277.338.366.538.025.057.04.113.06.172.053.152.084.311.093.471zm-6.21-1.718L65.739 6.26V16.5a1.83 1.83 0 0 0 1.826 1.833h10.2zm-2.896 88c3.025 0 5.478-2.462 5.478-5.5V22H67.565c-3.025 0-5.478-2.463-5.478-5.5V3.667H9.13c-3.025 0-5.478 2.462-5.478 5.5v91.666c0 3.038 2.453 5.5 5.478 5.5h65.74zM21.913 55a1.83 1.83 0 0 1-1.826-1.833V49.5c.006-5.06 4.09-9.16 9.13-9.167h7.305v-2.636a9.12 9.12 0 0 1-5.479-8.364v-5.5c.007-5.06 4.09-9.16 9.13-9.166h14.61a1.83 1.83 0 0 1 1.826 1.833v3.667a9.179 9.179 0 0 1-3.652 7.295v1.871a9.148 9.148 0 0 1-5.479 8.377v2.623h7.305c5.04.007 9.124 4.107 9.13 9.167v3.667A1.83 1.83 0 0 1 62.087 55H21.913zm12.783-25.667a5.48 5.48 0 0 0 3.286 5.016 3.65 3.65 0 0 1 2.192 3.348v2.636h3.652v-2.636c0-1.455.861-2.77 2.192-3.348a5.483 5.483 0 0 0 3.286-5.016v-2.85c.001-.654.35-1.258.913-1.584a5.445 5.445 0 0 0 2.74-4.732v-1.834H40.174c-3.025 0-5.478 2.463-5.478 5.5v5.5zM42.697 44h-1.394L42 45.401 42.697 44zM23.74 49.5v1.833h3.652v-3.666h3.652v3.666h21.914v-3.666h3.652v3.666h3.652V49.5c0-3.037-2.453-5.5-5.478-5.5H46.78l-3.147 6.32a1.824 1.824 0 0 1-3.268 0L37.219 44h-8.002c-3.025 0-5.478 2.463-5.478 5.5zM16.435 66h21.913v3.667H16.435V66zM42 66h7.304v3.667H42V66zm10.957 0h14.608v3.667H52.957V66zM16.435 77h14.608v3.667H16.435V77zm18.26 0h14.61v3.667h-14.61V77zm18.262 0h3.652v3.667h-3.652V77zm7.304 0h7.304v3.667h-7.304V77zM16.435 89.833h21.913V93.5H16.435v-3.667zm25.565 0h10.957V93.5H42v-3.667zm14.609 0h10.956V93.5H56.61v-3.667z"/>
    </defs>
    <g fill="none" fill-rule="evenodd">
        <mask id="b" fill="#fff">
            <use xlink:href="#a"/>
        </mask>
        <use fill="#FFF" fill-rule="nonzero" xlink:href="#a"/>
        <g fill="#FFF" mask="url(#b)">
            <path d="M0 0h84v110H0z"/>
        </g>
        <path d="M0 0h84v110H0z" mask="url(#b)"/>
    </g>
</svg>
